<svg xmlns="http://www.w3.org/2000/svg" width="500" height="500" fill="none"><defs><clipPath id="clip0_504_88"><rect id="svg_1" width="500" height="500" fill="#fff"/></clipPath></defs><g><title>Layer 1</title><g id="svg_2" stroke="null" clip-path="url(#clip0_504_88)"><path id="svg_3" fill="#fff" fill-rule="evenodd" stroke="null" d="m257.97153,462.05745l35.25582,-35.13467l32.46928,0c2.54423,7.02693 9.20771,12.1154 17.20387,12.1154c10.05578,0 18.1731,-8.11732 18.1731,-18.1731c0,-10.05578 -8.11732,-18.1731 -18.1731,-18.1731c-7.87501,0 -14.65964,5.08847 -17.20387,12.1154l-37.55775,0l-32.71159,32.59043l0,-39.85967l38.89044,-38.89044l62.87894,0c2.54423,7.02693 9.20771,12.1154 17.20387,12.1154c10.05578,0 18.1731,-8.11732 18.1731,-18.1731c0,-10.05578 -8.11732,-18.1731 -18.1731,-18.1731c-7.87501,0 -14.65964,5.08847 -17.20387,12.1154l-50.76353,0l36.34621,-36.22505l0,-30.28851l26.16927,-26.04811c2.42308,1.09039 5.08847,1.81731 7.87501,1.81731c10.05578,0 18.1731,-8.11732 18.1731,-18.1731c0,-10.05578 -8.11732,-18.1731 -18.1731,-18.1731c-10.05578,0 -18.1731,8.11732 -18.1731,18.1731c0,2.78654 0.60577,5.45193 1.81731,7.87501l-17.56733,17.56733l0,-55.48854c7.02693,-2.54423 12.1154,-9.20771 12.1154,-17.08272c0,-10.05578 -8.11732,-18.1731 -18.1731,-18.1731c-10.05578,0 -18.1731,8.11732 -18.1731,18.1731c0,7.87501 5.08847,14.65964 12.1154,17.08272l0,55.48854l-17.56733,-17.56733c1.09039,-2.42308 1.81731,-5.08847 1.81731,-7.87501c0,-10.05578 -8.11732,-18.1731 -18.1731,-18.1731c-10.05578,0 -18.1731,8.11732 -18.1731,18.1731c0,10.05578 8.11732,18.1731 18.1731,18.1731c2.78654,0 5.45193,-0.60577 7.87501,-1.81731l26.16927,26.04811l0,25.32119l-32.71159,32.71159l0,-23.9885c7.02693,-2.54423 12.1154,-9.20771 12.1154,-17.08272c0,-10.05578 -8.11732,-18.1731 -18.1731,-18.1731c-10.05578,0 -18.1731,8.11732 -18.1731,18.1731c0,7.87501 5.08847,14.65964 12.1154,17.08272l0,36.1039l-30.28851,30.28851l0,-177.8541l24.95773,-24.83657c2.42308,1.09039 5.08847,1.81731 7.87501,1.81731c10.05578,0 18.1731,-8.11732 18.1731,-18.1731c0,-10.05578 -8.11732,-18.1731 -18.1731,-18.1731c-10.05578,0 -18.1731,8.11732 -18.1731,18.1731c0,2.78654 0.60577,5.45193 1.81731,7.87501l-22.41349,22.41349l-22.41349,-22.41349c1.09039,-2.42308 1.81731,-5.08847 1.81731,-7.87501c0,-10.05578 -8.11732,-18.1731 -18.1731,-18.1731c-10.05578,0 -18.1731,8.11732 -18.1731,18.1731c0,10.05578 8.11732,18.1731 18.1731,18.1731c2.78654,0 5.45193,-0.60577 7.87501,-1.81731l24.95773,24.83657l0,127.09057l-43.7366,-43.61545l0,-34.89236c7.02693,-2.54423 12.1154,-9.20771 12.1154,-17.08272c0,-10.05578 -8.11732,-18.1731 -18.1731,-18.1731c-10.05578,0 -18.1731,8.11732 -18.1731,18.1731c0,7.87501 5.08847,14.65964 12.1154,17.08272l0,22.77696l-34.04428,-33.92313l0,-33.68082c7.02693,-2.54423 12.1154,-9.20771 12.1154,-17.08272c0,-10.05578 -8.11732,-18.1731 -18.1731,-18.1731c-10.05578,0 -18.1731,8.11732 -18.1731,18.1731c0,7.87501 5.08847,14.65964 12.1154,17.08272l0,38.64813l37.55775,37.43659l-21.56542,0c-2.54423,-7.02693 -9.20771,-12.1154 -17.20387,-12.1154c-10.05578,0 -18.1731,8.11732 -18.1731,18.1731c0,10.05578 8.11732,18.1731 18.1731,18.1731c7.87501,0 14.65964,-5.08847 17.20387,-12.1154l33.68082,0l52.21738,52.21738l0,90.74436l-27.86542,-27.86542l0,-34.89236c7.02693,-2.54423 12.1154,-9.20771 12.1154,-17.08272c0,-10.05578 -8.11732,-18.1731 -18.1731,-18.1731c-10.05578,0 -18.1731,8.11732 -18.1731,18.1731c0,7.87501 5.08847,14.65964 12.1154,17.08272l0,22.77696l-40.5866,-40.5866c1.09039,-2.42308 1.81731,-5.08847 1.81731,-7.87501c0,-10.05578 -8.11732,-18.1731 -18.1731,-18.1731c-10.05578,0 -18.1731,8.11732 -18.1731,18.1731c0,10.05578 8.11732,18.1731 18.1731,18.1731c2.78654,0 5.45193,-0.60577 7.87501,-1.81731l40.5866,40.5866l-21.56542,0c-2.54423,-7.02693 -9.20771,-12.1154 -17.20387,-12.1154c-10.05578,0 -18.1731,8.11732 -18.1731,18.1731c0,10.05578 8.11732,18.1731 18.1731,18.1731c7.87501,0 14.65964,-5.08847 17.20387,-12.1154l33.68082,0l34.04428,33.92313l-168.8887,0c-5.20962,0 -9.45001,-4.24039 -9.45001,-9.45001l0,-161.37716l-42.88852,0c-6.30001,0 -11.26732,-5.08847 -11.26732,-11.26732c0,-3.02885 1.21154,-5.81539 3.27116,-7.99617l227.16379,-229.82918c5.45193,-5.57308 14.41733,-5.57308 19.99041,-0.12115l0.12115,0.12115l118.60979,119.45786l0,-22.05003c0,-5.20962 4.24039,-9.45001 9.45001,-9.45001l39.37506,0c5.20962,0 9.45001,4.24039 9.45001,9.45001l0,81.05204l50.40007,51.3693c4.36154,4.4827 4.36154,11.63079 -0.12115,15.99233c-2.05962,2.05962 -4.96731,3.27116 -7.87501,3.27116l-42.28275,0l0,161.37716c0,5.20962 -4.24039,9.45001 -9.45001,9.45001l-169.13101,0zm-102.01169,-32.71159c-3.99808,0 -7.26924,-3.27116 -7.26924,-7.26924c0,-3.99808 3.27116,-7.26924 7.26924,-7.26924c3.99808,0 7.26924,3.27116 7.26924,7.26924c0,3.99808 -3.27116,7.26924 -7.26924,7.26924zm53.42892,-54.51931c-3.99808,0 -7.26924,-3.27116 -7.26924,-7.26924c0,-3.99808 3.27116,-7.26924 7.26924,-7.26924c3.99808,0 7.26924,3.27116 7.26924,7.26924c0,3.99808 -3.27116,7.26924 -7.26924,7.26924zm-63.12124,-8.48078c-3.99808,0 -7.26924,-3.27116 -7.26924,-7.26924c0,-3.99808 3.27116,-7.26924 7.26924,-7.26924c3.99808,0 7.26924,3.27116 7.26924,7.26924c0,3.99808 -3.27116,7.26924 -7.26924,7.26924zm-6.0577,-60.57701c-3.99808,0 -7.26924,-3.27116 -7.26924,-7.26924c0,-3.99808 3.27116,-7.26924 7.26924,-7.26924c3.99808,0 7.26924,3.27116 7.26924,7.26924c0,3.99808 -3.27116,7.26924 -7.26924,7.26924zm151.68483,8.48078c-3.99808,0 -7.26924,-3.27116 -7.26924,-7.26924c0,-3.99808 3.27116,-7.26924 7.26924,-7.26924c3.99808,0 7.26924,3.27116 7.26924,7.26924c0,3.99808 -3.27116,7.26924 -7.26924,7.26924zm82.50589,55.73085c-3.99808,0 -7.26924,-3.27116 -7.26924,-7.26924c0,-3.99808 3.27116,-7.26924 7.26924,-7.26924c3.99808,0 7.26924,3.27116 7.26924,7.26924c0,3.99808 -3.27116,7.26924 -7.26924,7.26924zm-31.50005,58.15393c-3.99808,0 -7.26924,-3.27116 -7.26924,-7.26924c0,-3.99808 3.27116,-7.26924 7.26924,-7.26924c3.99808,0 7.26924,3.27116 7.26924,7.26924c0,3.99808 -3.27116,7.26924 -7.26924,7.26924zm33.92313,-173.25025c-3.99808,0 -7.26924,-3.27116 -7.26924,-7.26924c0,-3.99808 3.27116,-7.26924 7.26924,-7.26924c3.99808,0 7.26924,3.27116 7.26924,7.26924c0,3.99808 -3.27116,7.26924 -7.26924,7.26924zm-39.98083,-47.25007c-3.99808,0 -7.26924,-3.27116 -7.26924,-7.26924c0,-3.99808 3.27116,-7.26924 7.26924,-7.26924c3.99808,0 7.26924,3.27116 7.26924,7.26924c0,3.99808 -3.27116,7.26924 -7.26924,7.26924zm-48.58276,-29.07696c-3.99808,0 -7.26924,-3.27116 -7.26924,-7.26924c0,-3.99808 3.27116,-7.26924 7.26924,-7.26924c3.99808,0 7.26924,3.27116 7.26924,7.26924c0,3.99808 -3.27116,7.26924 -7.26924,7.26924zm-77.65973,0c-3.99808,0 -7.26924,-3.27116 -7.26924,-7.26924c0,-3.99808 3.27116,-7.26924 7.26924,-7.26924c3.99808,0 7.26924,3.27116 7.26924,7.26924c0,3.99808 -3.27116,7.26924 -7.26924,7.26924zm-63.12124,27.86542c-3.99808,0 -7.26924,-3.27116 -7.26924,-7.26924c0,-3.99808 3.27116,-7.26924 7.26924,-7.26924c3.99808,0 7.26924,3.27116 7.26924,7.26924c0,3.99808 -3.27116,7.26924 -7.26924,7.26924zm46.03853,44.82699c-3.99808,0 -7.26924,-3.27116 -7.26924,-7.26924c0,-3.99808 3.27116,-7.26924 7.26924,-7.26924c3.99808,0 7.26924,3.27116 7.26924,7.26924c0.12115,3.99808 -3.15,7.26924 -7.26924,7.26924zm103.22323,3.63462c-3.99808,0 -7.26924,-3.27116 -7.26924,-7.26924c0,-3.99808 3.27116,-7.26924 7.26924,-7.26924c3.99808,0 7.26924,3.27116 7.26924,7.26924c0,3.99808 -3.27116,7.26924 -7.26924,7.26924z" clip-rule="evenodd"/></g></g></svg>